<svg width="640" height="480" viewBox="0 0 640 480" xmlns="http://www.w3.org/2000/svg" role="img" aria-labelledby="title desc">
  <title id="title">Floral bouquet illustration</title>
  <desc id="desc">Abstract pastel floral bouquet placeholder artwork</desc>
  <defs>
    <linearGradient id="bg" x1="0%" y1="0%" x2="100%" y2="100%">
      <stop offset="0%" stop-color="#fce7f3" />
      <stop offset="100%" stop-color="#e0f2fe" />
    </linearGradient>
  </defs>
  <rect width="640" height="480" fill="url(#bg)" rx="32" />
  <g opacity="0.8" transform="translate(320 260)">
    <ellipse cx="0" cy="180" rx="140" ry="28" fill="#fdf2f8" />
    <g fill="none" stroke-width="12" stroke-linecap="round">
      <path d="M -40 80 Q -60 10 0 -80" stroke="#ec4899" />
      <path d="M  40 80 Q  60 10 0 -90" stroke="#38bdf8" />
      <path d="M   0 82 Q -10 20 30 -60" stroke="#a855f7" />
      <path d="M -20 86 Q  10 30 -20 -70" stroke="#f97316" />
      <path d="M  20 84 Q -10 30 20 -65" stroke="#10b981" />
    </g>
    <circle cx="0" cy="-110" r="60" fill="#fde68a" />
    <circle cx="-60" cy="-40" r="44" fill="#fbcfe8" />
    <circle cx="60" cy="-30" r="52" fill="#bfdbfe" />
    <circle cx="-20" cy="-10" r="36" fill="#c7d2fe" />
    <circle cx="30" cy="-5" r="28" fill="#fecdd3" />
  </g>
</svg>
